<svg width="98" height="55" viewBox="0 0 98 55" fill="none" xmlns="http://www.w3.org/2000/svg">
<path d="M94.866 40.5132C91.0796 40.5132 82.8649 40.4182 73.896 39.7242C57.3622 38.4418 46.2561 35.8267 40.8884 31.9504C40.4604 31.6416 40.3638 31.0426 40.6665 30.6099C40.9719 30.1771 41.5642 30.0795 41.9922 30.3856C53.1765 38.4655 89.767 38.6212 96.0977 38.5869V30.0821L48.4585 2.06887L1.90233 29.177V39.5395C1.90233 40.0699 1.47698 40.5 0.95247 40.5C0.427959 40.5 0 40.0699 0 39.5395V28.6202C0 28.2772 0.182665 27.9605 0.47493 27.789L47.9862 0.129373C48.2811 -0.0421477 48.6438 -0.0421477 48.9387 0.129373L97.5277 28.6994C97.8199 28.8709 98 29.1876 98 29.5306V39.5395C98 40.0646 97.5851 40.4921 97.0658 40.5C97.0371 40.5 96.2438 40.5132 94.866 40.5132Z" fill="#424041"/>
<path d="M41.8096 32.9504C41.5043 32.9504 41.2068 32.8 41.0241 32.5308C40.9693 32.4517 39.6959 30.5412 39.4088 27.8101C39.1427 25.2742 39.6985 21.5351 43.8502 18.1126C51.269 12.0012 54.3509 11.6265 54.6797 11.6027C55.1494 11.5711 55.5773 11.8956 55.6739 12.3627C55.7026 12.4973 56.3498 15.735 54.9876 19.899C53.7429 23.6989 50.5175 29.0292 42.201 32.8607C42.0731 32.9187 41.9401 32.9478 41.807 32.9478L41.8096 32.9504ZM53.9281 13.7903C53.5785 13.9222 53.1218 14.1201 52.5529 14.4104C51.1203 15.1413 48.6569 16.6375 45.0532 19.6061C39.6672 24.0419 41.3138 28.9421 42.201 30.7444C47.8871 27.9499 51.5691 24.1369 53.1557 19.3977C53.9516 17.0175 53.9986 14.9592 53.9307 13.7903H53.9281Z" fill="url(#paint0_linear_20_941)"/>
<path d="M29.4821 36.6236C27.8903 36.6236 26.2542 36.4177 24.5998 35.9401C20.4298 34.7368 18.1491 32.3725 18.0525 32.2722C17.7237 31.9265 17.6976 31.3909 17.9899 31.0135C18.1934 30.7523 20.2341 28.3879 29.4065 25.6278C34.5394 24.0841 37.9082 25.7254 39.8314 27.3747C41.9008 29.1506 42.7463 31.2906 42.7802 31.3803C42.9498 31.8157 42.7828 32.3092 42.3888 32.5519C39.1112 34.5627 34.5211 36.6262 29.4795 36.6262L29.4821 36.6236ZM20.2001 31.6125C21.1161 32.3276 22.8279 33.4465 25.2208 34.122C29.9858 35.4625 35.1761 34.531 40.6613 31.3539C39.6879 29.5991 36.6113 25.4642 29.9519 27.4697C25.4974 28.8102 22.8879 30.0293 21.484 30.813C20.9256 31.1244 20.5081 31.3962 20.2027 31.6152L20.2001 31.6125Z" fill="#424041"/>
<path d="M10.486 51C10.3833 51 10.2993 50.9673 10.234 50.902C10.1687 50.8367 10.136 50.7527 10.136 50.65V43.398H7.644C7.54133 43.398 7.45733 43.3653 7.392 43.3C7.32667 43.2253 7.294 43.1413 7.294 43.048V41.55C7.294 41.4473 7.32667 41.3633 7.392 41.298C7.45733 41.2327 7.54133 41.2 7.644 41.2H15.176C15.2787 41.2 15.3627 41.2327 15.428 41.298C15.4933 41.3633 15.526 41.4473 15.526 41.55V43.048C15.526 43.1413 15.4933 43.2253 15.428 43.3C15.3627 43.3653 15.2787 43.398 15.176 43.398H12.684V50.65C12.684 50.7527 12.6513 50.8367 12.586 50.902C12.5207 50.9673 12.4367 51 12.334 51H10.486ZM18.7739 51.14C17.6726 51.14 16.7952 50.8413 16.1419 50.244C15.4886 49.6467 15.1479 48.76 15.1199 47.584C15.1199 47.5187 15.1199 47.4347 15.1199 47.332C15.1199 47.2293 15.1199 47.15 15.1199 47.094C15.1479 46.3567 15.3112 45.7267 15.6099 45.204C15.9179 44.672 16.3379 44.2707 16.8699 44C17.4112 43.72 18.0412 43.58 18.7599 43.58C19.5812 43.58 20.2579 43.7433 20.7899 44.07C21.3312 44.3967 21.7372 44.84 22.0079 45.4C22.2786 45.96 22.4139 46.5993 22.4139 47.318V47.654C22.4139 47.7567 22.3766 47.8407 22.3019 47.906C22.2366 47.9713 22.1572 48.004 22.0639 48.004H17.5839C17.5839 48.0133 17.5839 48.0273 17.5839 48.046C17.5839 48.0647 17.5839 48.0833 17.5839 48.102C17.5932 48.3727 17.6399 48.62 17.7239 48.844C17.8079 49.068 17.9386 49.2453 18.1159 49.376C18.2932 49.5067 18.5079 49.572 18.7599 49.572C18.9466 49.572 19.1006 49.544 19.2219 49.488C19.3526 49.4227 19.4599 49.3527 19.5439 49.278C19.6279 49.194 19.6932 49.124 19.7399 49.068C19.8239 48.9747 19.8892 48.9187 19.9359 48.9C19.9919 48.872 20.0759 48.858 20.1879 48.858H21.9239C22.0172 48.858 22.0919 48.886 22.1479 48.942C22.2132 48.9887 22.2412 49.0587 22.2319 49.152C22.2226 49.3107 22.1432 49.502 21.9939 49.726C21.8446 49.95 21.6252 50.174 21.3359 50.398C21.0559 50.6127 20.7012 50.79 20.2719 50.93C19.8426 51.07 19.3432 51.14 18.7739 51.14ZM17.5839 46.618H19.9499V46.59C19.9499 46.2913 19.9032 46.03 19.8099 45.806C19.7259 45.582 19.5906 45.4093 19.4039 45.288C19.2266 45.1667 19.0119 45.106 18.7599 45.106C18.5079 45.106 18.2932 45.1667 18.1159 45.288C17.9479 45.4093 17.8172 45.582 17.7239 45.806C17.6306 46.03 17.5839 46.2913 17.5839 46.59V46.618ZM24.0764 53.66C23.9737 53.66 23.8897 53.6273 23.8244 53.562C23.7591 53.4967 23.7264 53.4127 23.7264 53.31V44.07C23.7264 43.9673 23.7591 43.8833 23.8244 43.818C23.8897 43.7527 23.9737 43.72 24.0764 43.72H25.6584C25.7517 43.72 25.8311 43.7527 25.8964 43.818C25.9711 43.8833 26.0084 43.9673 26.0084 44.07V44.588C26.2231 44.2987 26.5077 44.0607 26.8624 43.874C27.2171 43.678 27.6557 43.58 28.1784 43.58C28.6451 43.58 29.0557 43.6547 29.4104 43.804C29.7651 43.944 30.0684 44.154 30.3204 44.434C30.5724 44.714 30.7684 45.0547 30.9084 45.456C31.0577 45.8573 31.1417 46.3193 31.1604 46.842C31.1697 47.0287 31.1744 47.2013 31.1744 47.36C31.1744 47.5187 31.1697 47.6913 31.1604 47.878C31.1417 48.382 31.0624 48.8347 30.9224 49.236C30.7824 49.6373 30.5864 49.978 30.3344 50.258C30.0824 50.538 29.7744 50.7573 29.4104 50.916C29.0557 51.0653 28.6451 51.14 28.1784 51.14C27.7211 51.14 27.3197 51.0607 26.9744 50.902C26.6384 50.734 26.3584 50.5007 26.1344 50.202V53.31C26.1344 53.4127 26.1017 53.4967 26.0364 53.562C25.9711 53.6273 25.8871 53.66 25.7844 53.66H24.0764ZM27.4224 49.264C27.7397 49.264 27.9871 49.1987 28.1644 49.068C28.3417 48.9373 28.4677 48.76 28.5424 48.536C28.6264 48.312 28.6777 48.0647 28.6964 47.794C28.7151 47.5047 28.7151 47.2153 28.6964 46.926C28.6777 46.6553 28.6264 46.408 28.5424 46.184C28.4677 45.96 28.3417 45.7827 28.1644 45.652C27.9871 45.5213 27.7397 45.456 27.4224 45.456C27.1144 45.456 26.8671 45.526 26.6804 45.666C26.4937 45.7967 26.3584 45.9693 26.2744 46.184C26.1904 46.3987 26.1437 46.632 26.1344 46.884C26.1251 47.0613 26.1204 47.234 26.1204 47.402C26.1204 47.57 26.1251 47.7473 26.1344 47.934C26.1437 48.1673 26.1951 48.3867 26.2884 48.592C26.3817 48.788 26.5217 48.9513 26.7084 49.082C26.8951 49.2033 27.1331 49.264 27.4224 49.264ZM32.9084 51C32.8058 51 32.7218 50.9673 32.6564 50.902C32.5911 50.8367 32.5584 50.7527 32.5584 50.65V41.41C32.5584 41.3073 32.5911 41.2233 32.6564 41.158C32.7218 41.0927 32.8058 41.06 32.9084 41.06H34.5604C34.6631 41.06 34.7471 41.0927 34.8124 41.158C34.8778 41.2233 34.9104 41.3073 34.9104 41.41V50.65C34.9104 50.7527 34.8778 50.8367 34.8124 50.902C34.7471 50.9673 34.6631 51 34.5604 51H32.9084ZM40.0083 51.14C39.2243 51.14 38.5616 51.014 38.0203 50.762C37.4883 50.51 37.0776 50.1507 36.7883 49.684C36.5083 49.208 36.3496 48.6433 36.3123 47.99C36.3029 47.8033 36.2983 47.5933 36.2983 47.36C36.2983 47.1173 36.3029 46.9073 36.3123 46.73C36.3496 46.0673 36.5176 45.5027 36.8163 45.036C37.1149 44.5693 37.5303 44.21 38.0623 43.958C38.6036 43.706 39.2523 43.58 40.0083 43.58C40.7736 43.58 41.4223 43.706 41.9543 43.958C42.4956 44.21 42.9156 44.5693 43.2143 45.036C43.5129 45.5027 43.6809 46.0673 43.7183 46.73C43.7276 46.9073 43.7323 47.1173 43.7323 47.36C43.7323 47.5933 43.7276 47.8033 43.7183 47.99C43.6809 48.6433 43.5176 49.208 43.2283 49.684C42.9483 50.1507 42.5376 50.51 41.9963 50.762C41.4643 51.014 40.8016 51.14 40.0083 51.14ZM40.0083 49.432C40.4283 49.432 40.7316 49.306 40.9183 49.054C41.1143 48.802 41.2263 48.424 41.2543 47.92C41.2636 47.78 41.2683 47.5933 41.2683 47.36C41.2683 47.1267 41.2636 46.94 41.2543 46.8C41.2263 46.3053 41.1143 45.932 40.9183 45.68C40.7316 45.4187 40.4283 45.288 40.0083 45.288C39.5976 45.288 39.2943 45.4187 39.0983 45.68C38.9023 45.932 38.7949 46.3053 38.7763 46.8C38.7669 46.94 38.7623 47.1267 38.7623 47.36C38.7623 47.5933 38.7669 47.78 38.7763 47.92C38.7949 48.424 38.9023 48.802 39.0983 49.054C39.2943 49.306 39.5976 49.432 40.0083 49.432Z" fill="#1C1C29"/>
<path d="M49.2812 51.14C48.3945 51.14 47.6339 50.9953 46.9992 50.706C46.3739 50.4167 45.8839 49.992 45.5292 49.432C45.1839 48.872 44.9925 48.1767 44.9552 47.346C44.9459 46.9633 44.9412 46.5527 44.9412 46.114C44.9412 45.6753 44.9459 45.2553 44.9552 44.854C44.9925 44.042 45.1885 43.356 45.5432 42.796C45.8979 42.2267 46.3925 41.7973 47.0272 41.508C47.6619 41.2093 48.4132 41.06 49.2812 41.06C49.8972 41.06 50.4665 41.1393 50.9892 41.298C51.5119 41.4473 51.9692 41.6713 52.3612 41.97C52.7532 42.2593 53.0565 42.614 53.2712 43.034C53.4952 43.4447 53.6119 43.9113 53.6212 44.434C53.6305 44.518 53.6025 44.588 53.5372 44.644C53.4812 44.7 53.4112 44.728 53.3272 44.728H51.4372C51.3159 44.728 51.2225 44.7047 51.1572 44.658C51.0919 44.602 51.0359 44.504 50.9892 44.364C50.8585 43.8693 50.6439 43.5333 50.3452 43.356C50.0559 43.1693 49.6965 43.076 49.2672 43.076C48.7539 43.076 48.3479 43.2207 48.0492 43.51C47.7505 43.79 47.5872 44.2613 47.5592 44.924C47.5312 45.6893 47.5312 46.4733 47.5592 47.276C47.5872 47.9387 47.7505 48.4147 48.0492 48.704C48.3479 48.984 48.7539 49.124 49.2672 49.124C49.6965 49.124 50.0605 49.0307 50.3592 48.844C50.6579 48.6573 50.8679 48.3213 50.9892 47.836C51.0265 47.696 51.0779 47.6027 51.1432 47.556C51.2179 47.5 51.3159 47.472 51.4372 47.472H53.3272C53.4112 47.472 53.4812 47.5 53.5372 47.556C53.6025 47.612 53.6305 47.682 53.6212 47.766C53.6119 48.2887 53.4952 48.76 53.2712 49.18C53.0565 49.5907 52.7532 49.9453 52.3612 50.244C51.9692 50.5333 51.5119 50.7573 50.9892 50.916C50.4665 51.0653 49.8972 51.14 49.2812 51.14ZM58.3833 51.14C57.5993 51.14 56.9366 51.014 56.3953 50.762C55.8633 50.51 55.4526 50.1507 55.1633 49.684C54.8833 49.208 54.7246 48.6433 54.6873 47.99C54.6779 47.8033 54.6733 47.5933 54.6733 47.36C54.6733 47.1173 54.6779 46.9073 54.6873 46.73C54.7246 46.0673 54.8926 45.5027 55.1913 45.036C55.4899 44.5693 55.9053 44.21 56.4373 43.958C56.9786 43.706 57.6273 43.58 58.3833 43.58C59.1486 43.58 59.7973 43.706 60.3293 43.958C60.8706 44.21 61.2906 44.5693 61.5893 45.036C61.8879 45.5027 62.0559 46.0673 62.0933 46.73C62.1026 46.9073 62.1073 47.1173 62.1073 47.36C62.1073 47.5933 62.1026 47.8033 62.0933 47.99C62.0559 48.6433 61.8926 49.208 61.6033 49.684C61.3233 50.1507 60.9126 50.51 60.3713 50.762C59.8393 51.014 59.1766 51.14 58.3833 51.14ZM58.3833 49.432C58.8033 49.432 59.1066 49.306 59.2933 49.054C59.4893 48.802 59.6013 48.424 59.6293 47.92C59.6386 47.78 59.6433 47.5933 59.6433 47.36C59.6433 47.1267 59.6386 46.94 59.6293 46.8C59.6013 46.3053 59.4893 45.932 59.2933 45.68C59.1066 45.4187 58.8033 45.288 58.3833 45.288C57.9726 45.288 57.6693 45.4187 57.4733 45.68C57.2773 45.932 57.1699 46.3053 57.1513 46.8C57.1419 46.94 57.1373 47.1267 57.1373 47.36C57.1373 47.5933 57.1419 47.78 57.1513 47.92C57.1699 48.424 57.2773 48.802 57.4733 49.054C57.6693 49.306 57.9726 49.432 58.3833 49.432ZM63.8342 51C63.7315 51 63.6475 50.9673 63.5822 50.902C63.5169 50.8367 63.4842 50.7527 63.4842 50.65V41.41C63.4842 41.3073 63.5169 41.2233 63.5822 41.158C63.6475 41.0927 63.7315 41.06 63.8342 41.06H65.4862C65.5889 41.06 65.6729 41.0927 65.7382 41.158C65.8035 41.2233 65.8362 41.3073 65.8362 41.41V50.65C65.8362 50.7527 65.8035 50.8367 65.7382 50.902C65.6729 50.9673 65.5889 51 65.4862 51H63.8342ZM70.9341 51.14C70.1501 51.14 69.4874 51.014 68.9461 50.762C68.4141 50.51 68.0034 50.1507 67.7141 49.684C67.4341 49.208 67.2754 48.6433 67.2381 47.99C67.2287 47.8033 67.2241 47.5933 67.2241 47.36C67.2241 47.1173 67.2287 46.9073 67.2381 46.73C67.2754 46.0673 67.4434 45.5027 67.7421 45.036C68.0407 44.5693 68.4561 44.21 68.9881 43.958C69.5294 43.706 70.1781 43.58 70.9341 43.58C71.6994 43.58 72.3481 43.706 72.8801 43.958C73.4214 44.21 73.8414 44.5693 74.1401 45.036C74.4387 45.5027 74.6067 46.0673 74.6441 46.73C74.6534 46.9073 74.6581 47.1173 74.6581 47.36C74.6581 47.5933 74.6534 47.8033 74.6441 47.99C74.6067 48.6433 74.4434 49.208 74.1541 49.684C73.8741 50.1507 73.4634 50.51 72.9221 50.762C72.3901 51.014 71.7274 51.14 70.9341 51.14ZM70.9341 49.432C71.3541 49.432 71.6574 49.306 71.8441 49.054C72.0401 48.802 72.1521 48.424 72.1801 47.92C72.1894 47.78 72.1941 47.5933 72.1941 47.36C72.1941 47.1267 72.1894 46.94 72.1801 46.8C72.1521 46.3053 72.0401 45.932 71.8441 45.68C71.6574 45.4187 71.3541 45.288 70.9341 45.288C70.5234 45.288 70.2201 45.4187 70.0241 45.68C69.8281 45.932 69.7207 46.3053 69.7021 46.8C69.6927 46.94 69.6881 47.1267 69.6881 47.36C69.6881 47.5933 69.6927 47.78 69.7021 47.92C69.7207 48.424 69.8281 48.802 70.0241 49.054C70.2201 49.306 70.5234 49.432 70.9341 49.432ZM78.709 51.14C78.177 51.14 77.701 51.0187 77.281 50.776C76.8703 50.5333 76.5483 50.1787 76.315 49.712C76.0817 49.236 75.965 48.6573 75.965 47.976V44.07C75.965 43.9673 75.9977 43.8833 76.063 43.818C76.1283 43.7527 76.2123 43.72 76.315 43.72H78.065C78.1677 43.72 78.2517 43.7527 78.317 43.818C78.3823 43.8833 78.415 43.9673 78.415 44.07V47.892C78.415 48.8067 78.8257 49.264 79.647 49.264C80.0297 49.264 80.333 49.1473 80.557 48.914C80.7903 48.6713 80.907 48.3307 80.907 47.892V44.07C80.907 43.9673 80.9397 43.8833 81.005 43.818C81.0703 43.7527 81.1543 43.72 81.257 43.72H83.007C83.1097 43.72 83.1937 43.7527 83.259 43.818C83.3243 43.8833 83.357 43.9673 83.357 44.07V50.65C83.357 50.7527 83.3243 50.8367 83.259 50.902C83.1937 50.9673 83.1097 51 83.007 51H81.383C81.2897 51 81.2057 50.9673 81.131 50.902C81.0657 50.8367 81.033 50.7527 81.033 50.65V50.118C80.7903 50.454 80.473 50.7107 80.081 50.888C79.6983 51.056 79.241 51.14 78.709 51.14ZM85.3537 51C85.2511 51 85.1671 50.9673 85.1017 50.902C85.0364 50.8367 85.0037 50.7527 85.0037 50.65V44.07C85.0037 43.9767 85.0364 43.8973 85.1017 43.832C85.1671 43.7573 85.2511 43.72 85.3537 43.72H86.9637C87.0664 43.72 87.1504 43.7573 87.2157 43.832C87.2811 43.8973 87.3137 43.9767 87.3137 44.07V44.63C87.5657 44.3407 87.8644 44.1167 88.2097 43.958C88.5644 43.7993 88.9611 43.72 89.3997 43.72H90.0157C90.1091 43.72 90.1884 43.7527 90.2537 43.818C90.3284 43.8833 90.3657 43.9673 90.3657 44.07V45.512C90.3657 45.6053 90.3284 45.6893 90.2537 45.764C90.1884 45.8293 90.1091 45.862 90.0157 45.862H88.6577C88.2751 45.862 87.9764 45.9693 87.7617 46.184C87.5564 46.3893 87.4537 46.6833 87.4537 47.066V50.65C87.4537 50.7527 87.4164 50.8367 87.3417 50.902C87.2764 50.9673 87.1924 51 87.0897 51H85.3537Z" fill="#4CA750"/>
<g clip-path="url(#clip0_20_941)">
<path d="M77.6799 32.3292C77.6871 32.3456 77.6938 32.3622 77.7002 32.3789C77.7741 32.5744 77.7645 32.7342 77.7118 32.8623C77.6415 33.0332 77.4772 33.19 77.1439 33.2724C76.8106 33.3548 76.3162 33.3432 75.6917 33.1407C71.2695 31.7071 67.0138 30.3418 63.8231 29.2214C63.0517 28.9505 62.3441 28.6943 61.7105 28.4549C62.8151 27.4102 63.3443 26.1044 63.2931 24.7579C63.8982 25.0281 64.563 25.3356 65.2814 25.6763C68.3368 27.1254 72.3215 29.1498 76.4724 31.2429C77.0587 31.5385 77.418 31.8781 77.5969 32.1712C77.6281 32.222 77.6558 32.2748 77.68 32.3292L77.6799 32.3292ZM62.4629 24.395C62.6718 25.7786 62.1759 27.0853 60.8717 28.1297C60.5368 27.9965 60.2279 27.8693 59.9551 27.7501C59.5263 27.563 59.1784 27.3936 58.9282 27.2509C59.6061 26.8825 60.1156 26.2707 60.3949 25.5942C60.6502 24.9759 60.7153 24.2779 60.509 23.6576C60.7743 23.7339 61.108 23.8491 61.4978 23.9999C61.7884 24.1123 62.1134 24.246 62.4629 24.395ZM59.72 23.8322C59.8927 24.2622 59.8619 24.7835 59.6535 25.2882C59.3758 25.9611 58.7873 26.5511 58.053 26.7411C56.4258 27.1622 54.9391 26.8932 53.8636 26.1004C52.913 25.3996 52.2675 24.2819 52.1418 22.7801C52.7221 23.7075 54.2018 24.1648 55.0515 23.8936C54.3422 23.6762 53.6314 23.33 53.0867 22.8578C54.1847 22.8769 55.1138 22.4566 55.9222 22.2106C56.5015 22.0342 57.0163 21.9421 57.5634 22.0754C58.1105 22.2086 58.728 22.5757 59.4786 23.4367C59.5808 23.554 59.6624 23.6877 59.72 23.8322Z" fill="#4CA750"/>
</g>
<defs>
<linearGradient id="paint0_linear_20_941" x1="46.5" y1="16" x2="56" y2="25.5" gradientUnits="userSpaceOnUse">
<stop stop-color="#C56354"/>
<stop offset="0.266656" stop-color="#9B384B"/>
<stop offset="0.548586" stop-color="#4CA750"/>
<stop offset="0.844337" stop-color="#518257"/>
<stop offset="0.910674" stop-color="#C56354"/>
</linearGradient>
<clipPath id="clip0_20_941">
<rect width="22.815" height="22.815" fill="white" transform="matrix(-0.384925 -0.922948 -0.922948 0.384925 79.8391 34.0571)"/>
</clipPath>
</defs>
</svg>
