<svg width="98" height="55" viewBox="0 0 98 55" fill="none" xmlns="http://www.w3.org/2000/svg">
<g clip-path="url(#clip0_45_574)">
<path d="M94.866 40.5132C91.0796 40.5132 82.8649 40.4182 73.896 39.7242C57.3622 38.4418 46.2561 35.8267 40.8884 31.9504C40.4604 31.6416 40.3638 31.0426 40.6665 30.6099C40.9719 30.1771 41.5642 30.0795 41.9922 30.3856C53.1765 38.4655 89.767 38.6212 96.0977 38.5869V30.0821L48.4585 2.06887L1.90233 29.177V39.5395C1.90233 40.0699 1.47698 40.5 0.95247 40.5C0.427959 40.5 0 40.0699 0 39.5395V28.6202C0 28.2772 0.182665 27.9605 0.47493 27.789L47.9862 0.129373C48.2811 -0.0421477 48.6438 -0.0421477 48.9387 0.129373L97.5277 28.6994C97.8199 28.8709 98 29.1876 98 29.5306V39.5395C98 40.0646 97.5851 40.4921 97.0658 40.5C97.0371 40.5 96.2438 40.5132 94.866 40.5132Z" fill="#424041"/>
<path d="M41.8095 32.9504C41.5042 32.9504 41.2067 32.8 41.024 32.5308C40.9692 32.4517 39.6958 30.5412 39.4087 27.8101C39.1425 25.2742 39.6984 21.5351 43.8501 18.1126C51.2689 12.0012 54.3507 11.6265 54.6795 11.6027C55.1493 11.5711 55.5772 11.8956 55.6738 12.3627C55.7025 12.4973 56.3496 15.735 54.9875 19.899C53.7427 23.6989 50.5174 29.0292 42.2009 32.8607C42.073 32.9187 41.9399 32.9478 41.8069 32.9478L41.8095 32.9504ZM53.928 13.7903C53.5783 13.9222 53.1217 14.1201 52.5528 14.4104C51.1202 15.1413 48.6568 16.6375 45.0531 19.6061C39.6671 24.0419 41.3137 28.9421 42.2009 30.7444C47.887 27.9499 51.569 24.1369 53.1556 19.3977C53.9515 17.0175 53.9985 14.9592 53.9306 13.7903H53.928Z" fill="url(#paint0_linear_45_574)"/>
<path d="M29.4821 36.6236C27.8903 36.6236 26.2542 36.4177 24.5998 35.9401C20.4298 34.7368 18.1491 32.3725 18.0525 32.2722C17.7237 31.9265 17.6976 31.3909 17.9899 31.0135C18.1934 30.7523 20.2341 28.3879 29.4065 25.6278C34.5394 24.0841 37.9082 25.7254 39.8314 27.3747C41.9008 29.1506 42.7463 31.2906 42.7802 31.3803C42.9498 31.8157 42.7828 32.3092 42.3888 32.5519C39.1112 34.5627 34.5211 36.6262 29.4795 36.6262L29.4821 36.6236ZM20.2001 31.6125C21.1161 32.3276 22.8279 33.4465 25.2208 34.122C29.9858 35.4625 35.1761 34.531 40.6613 31.3539C39.6879 29.5991 36.6113 25.4642 29.9519 27.4697C25.4974 28.8102 22.8879 30.0293 21.484 30.813C20.9256 31.1244 20.5081 31.3962 20.2027 31.6152L20.2001 31.6125Z" fill="#424041"/>
<path d="M3.482 51C3.35 51 3.242 50.958 3.158 50.874C3.074 50.79 3.032 50.682 3.032 50.55V41.226H-0.172C-0.304 41.226 -0.412 41.184 -0.496 41.1C-0.58 41.004 -0.622 40.896 -0.622 40.776V38.85C-0.622 38.718 -0.58 38.61 -0.496 38.526C-0.412 38.442 -0.304 38.4 -0.172 38.4H9.512C9.644 38.4 9.752 38.442 9.836 38.526C9.92 38.61 9.962 38.718 9.962 38.85V40.776C9.962 40.896 9.92 41.004 9.836 41.1C9.752 41.184 9.644 41.226 9.512 41.226H6.308V50.55C6.308 50.682 6.266 50.79 6.182 50.874C6.098 50.958 5.99 51 5.858 51H3.482ZM14.3179 51.18C12.9019 51.18 11.7739 50.796 10.9339 50.028C10.0939 49.26 9.65586 48.12 9.61986 46.608C9.61986 46.524 9.61986 46.416 9.61986 46.284C9.61986 46.152 9.61986 46.05 9.61986 45.978C9.65586 45.03 9.86586 44.22 10.2499 43.548C10.6459 42.864 11.1859 42.348 11.8699 42C12.5659 41.64 13.3759 41.46 14.2999 41.46C15.3559 41.46 16.2259 41.67 16.9099 42.09C17.6059 42.51 18.1279 43.08 18.4759 43.8C18.8239 44.52 18.9979 45.342 18.9979 46.266V46.698C18.9979 46.83 18.9499 46.938 18.8539 47.022C18.7699 47.106 18.6679 47.148 18.5479 47.148H12.7879C12.7879 47.16 12.7879 47.178 12.7879 47.202C12.7879 47.226 12.7879 47.25 12.7879 47.274C12.7999 47.622 12.8599 47.94 12.9679 48.228C13.0759 48.516 13.2439 48.744 13.4719 48.912C13.6999 49.08 13.9759 49.164 14.2999 49.164C14.5399 49.164 14.7379 49.128 14.8939 49.056C15.0619 48.972 15.1999 48.882 15.3079 48.786C15.4159 48.678 15.4999 48.588 15.5599 48.516C15.6679 48.396 15.7519 48.324 15.8119 48.3C15.8839 48.264 15.9919 48.246 16.1359 48.246H18.3679C18.4879 48.246 18.5839 48.282 18.6559 48.354C18.7399 48.414 18.7759 48.504 18.7639 48.624C18.7519 48.828 18.6499 49.074 18.4579 49.362C18.2659 49.65 17.9839 49.938 17.6119 50.226C17.2519 50.502 16.7959 50.73 16.2439 50.91C15.6919 51.09 15.0499 51.18 14.3179 51.18ZM12.7879 45.366H15.8299V45.33C15.8299 44.946 15.7699 44.61 15.6499 44.322C15.5419 44.034 15.3679 43.812 15.1279 43.656C14.8999 43.5 14.6239 43.422 14.2999 43.422C13.9759 43.422 13.6999 43.5 13.4719 43.656C13.2559 43.812 13.0879 44.034 12.9679 44.322C12.8479 44.61 12.7879 44.946 12.7879 45.33V45.366ZM21.3154 54.42C21.1834 54.42 21.0754 54.378 20.9914 54.294C20.9074 54.21 20.8654 54.102 20.8654 53.97V42.09C20.8654 41.958 20.9074 41.85 20.9914 41.766C21.0754 41.682 21.1834 41.64 21.3154 41.64H23.3494C23.4694 41.64 23.5714 41.682 23.6554 41.766C23.7514 41.85 23.7994 41.958 23.7994 42.09V42.756C24.0754 42.384 24.4414 42.078 24.8974 41.838C25.3534 41.586 25.9174 41.46 26.5894 41.46C27.1894 41.46 27.7174 41.556 28.1734 41.748C28.6294 41.928 29.0194 42.198 29.3434 42.558C29.6674 42.918 29.9194 43.356 30.0994 43.872C30.2914 44.388 30.3994 44.982 30.4234 45.654C30.4354 45.894 30.4414 46.116 30.4414 46.32C30.4414 46.524 30.4354 46.746 30.4234 46.986C30.3994 47.634 30.2974 48.216 30.1174 48.732C29.9374 49.248 29.6854 49.686 29.3614 50.046C29.0374 50.406 28.6414 50.688 28.1734 50.892C27.7174 51.084 27.1894 51.18 26.5894 51.18C26.0014 51.18 25.4854 51.078 25.0414 50.874C24.6094 50.658 24.2494 50.358 23.9614 49.974V53.97C23.9614 54.102 23.9194 54.21 23.8354 54.294C23.7514 54.378 23.6434 54.42 23.5114 54.42H21.3154ZM25.6174 48.768C26.0254 48.768 26.3434 48.684 26.5714 48.516C26.7994 48.348 26.9614 48.12 27.0574 47.832C27.1654 47.544 27.2314 47.226 27.2554 46.878C27.2794 46.506 27.2794 46.134 27.2554 45.762C27.2314 45.414 27.1654 45.096 27.0574 44.808C26.9614 44.52 26.7994 44.292 26.5714 44.124C26.3434 43.956 26.0254 43.872 25.6174 43.872C25.2214 43.872 24.9034 43.962 24.6634 44.142C24.4234 44.31 24.2494 44.532 24.1414 44.808C24.0334 45.084 23.9734 45.384 23.9614 45.708C23.9494 45.936 23.9434 46.158 23.9434 46.374C23.9434 46.59 23.9494 46.818 23.9614 47.058C23.9734 47.358 24.0394 47.64 24.1594 47.904C24.2794 48.156 24.4594 48.366 24.6994 48.534C24.9394 48.69 25.2454 48.768 25.6174 48.768ZM32.8508 51C32.7188 51 32.6108 50.958 32.5268 50.874C32.4428 50.79 32.4008 50.682 32.4008 50.55V38.67C32.4008 38.538 32.4428 38.43 32.5268 38.346C32.6108 38.262 32.7188 38.22 32.8508 38.22H34.9748C35.1068 38.22 35.2148 38.262 35.2988 38.346C35.3828 38.43 35.4248 38.538 35.4248 38.67V50.55C35.4248 50.682 35.3828 50.79 35.2988 50.874C35.2148 50.958 35.1068 51 34.9748 51H32.8508ZM42.1592 51.18C41.1512 51.18 40.2992 51.018 39.6032 50.694C38.9192 50.37 38.3912 49.908 38.0192 49.308C37.6592 48.696 37.4552 47.97 37.4072 47.13C37.3952 46.89 37.3892 46.62 37.3892 46.32C37.3892 46.008 37.3952 45.738 37.4072 45.51C37.4552 44.658 37.6712 43.932 38.0552 43.332C38.4392 42.732 38.9732 42.27 39.6572 41.946C40.3532 41.622 41.1872 41.46 42.1592 41.46C43.1432 41.46 43.9772 41.622 44.6612 41.946C45.3572 42.27 45.8972 42.732 46.2812 43.332C46.6652 43.932 46.8812 44.658 46.9292 45.51C46.9412 45.738 46.9472 46.008 46.9472 46.32C46.9472 46.62 46.9412 46.89 46.9292 47.13C46.8812 47.97 46.6712 48.696 46.2992 49.308C45.9392 49.908 45.4112 50.37 44.7152 50.694C44.0312 51.018 43.1792 51.18 42.1592 51.18ZM42.1592 48.984C42.6992 48.984 43.0892 48.822 43.3292 48.498C43.5812 48.174 43.7252 47.688 43.7612 47.04C43.7732 46.86 43.7792 46.62 43.7792 46.32C43.7792 46.02 43.7732 45.78 43.7612 45.6C43.7252 44.964 43.5812 44.484 43.3292 44.16C43.0892 43.824 42.6992 43.656 42.1592 43.656C41.6312 43.656 41.2412 43.824 40.9892 44.16C40.7372 44.484 40.5992 44.964 40.5752 45.6C40.5632 45.78 40.5572 46.02 40.5572 46.32C40.5572 46.62 40.5632 46.86 40.5752 47.04C40.5992 47.688 40.7372 48.174 40.9892 48.498C41.2412 48.822 41.6312 48.984 42.1592 48.984Z" fill="#424041"/>
<path d="M54.2615 51.18C53.1215 51.18 52.1435 50.994 51.3275 50.622C50.5235 50.25 49.8935 49.704 49.4375 48.984C48.9935 48.264 48.7475 47.37 48.6995 46.302C48.6875 45.81 48.6815 45.282 48.6815 44.718C48.6815 44.154 48.6875 43.614 48.6995 43.098C48.7475 42.054 48.9995 41.172 49.4555 40.452C49.9115 39.72 50.5475 39.168 51.3635 38.796C52.1795 38.412 53.1455 38.22 54.2615 38.22C55.0535 38.22 55.7855 38.322 56.4575 38.526C57.1295 38.718 57.7175 39.006 58.2215 39.39C58.7255 39.762 59.1155 40.218 59.3915 40.758C59.6795 41.286 59.8295 41.886 59.8415 42.558C59.8535 42.666 59.8175 42.756 59.7335 42.828C59.6615 42.9 59.5715 42.936 59.4635 42.936H57.0335C56.8775 42.936 56.7575 42.906 56.6735 42.846C56.5895 42.774 56.5175 42.648 56.4575 42.468C56.2895 41.832 56.0135 41.4 55.6295 41.172C55.2575 40.932 54.7955 40.812 54.2435 40.812C53.5835 40.812 53.0615 40.998 52.6775 41.37C52.2935 41.73 52.0835 42.336 52.0475 43.188C52.0115 44.172 52.0115 45.18 52.0475 46.212C52.0835 47.064 52.2935 47.676 52.6775 48.048C53.0615 48.408 53.5835 48.588 54.2435 48.588C54.7955 48.588 55.2635 48.468 55.6475 48.228C56.0315 47.988 56.3015 47.556 56.4575 46.932C56.5055 46.752 56.5715 46.632 56.6555 46.572C56.7515 46.5 56.8775 46.464 57.0335 46.464H59.4635C59.5715 46.464 59.6615 46.5 59.7335 46.572C59.8175 46.644 59.8535 46.734 59.8415 46.842C59.8295 47.514 59.6795 48.12 59.3915 48.66C59.1155 49.188 58.7255 49.644 58.2215 50.028C57.7175 50.4 57.1295 50.688 56.4575 50.892C55.7855 51.084 55.0535 51.18 54.2615 51.18ZM66.1442 51.18C65.1362 51.18 64.2842 51.018 63.5882 50.694C62.9042 50.37 62.3762 49.908 62.0042 49.308C61.6442 48.696 61.4402 47.97 61.3922 47.13C61.3802 46.89 61.3742 46.62 61.3742 46.32C61.3742 46.008 61.3802 45.738 61.3922 45.51C61.4402 44.658 61.6562 43.932 62.0402 43.332C62.4242 42.732 62.9582 42.27 63.6422 41.946C64.3382 41.622 65.1722 41.46 66.1442 41.46C67.1282 41.46 67.9622 41.622 68.6462 41.946C69.3422 42.27 69.8822 42.732 70.2662 43.332C70.6502 43.932 70.8662 44.658 70.9142 45.51C70.9262 45.738 70.9322 46.008 70.9322 46.32C70.9322 46.62 70.9262 46.89 70.9142 47.13C70.8662 47.97 70.6562 48.696 70.2842 49.308C69.9242 49.908 69.3962 50.37 68.7002 50.694C68.0162 51.018 67.1642 51.18 66.1442 51.18ZM66.1442 48.984C66.6842 48.984 67.0742 48.822 67.3142 48.498C67.5662 48.174 67.7102 47.688 67.7462 47.04C67.7582 46.86 67.7642 46.62 67.7642 46.32C67.7642 46.02 67.7582 45.78 67.7462 45.6C67.7102 44.964 67.5662 44.484 67.3142 44.16C67.0742 43.824 66.6842 43.656 66.1442 43.656C65.6162 43.656 65.2262 43.824 64.9742 44.16C64.7222 44.484 64.5842 44.964 64.5602 45.6C64.5482 45.78 64.5422 46.02 64.5422 46.32C64.5422 46.62 64.5482 46.86 64.5602 47.04C64.5842 47.688 64.7222 48.174 64.9742 48.498C65.2262 48.822 65.6162 48.984 66.1442 48.984ZM73.3325 51C73.2005 51 73.0925 50.958 73.0085 50.874C72.9245 50.79 72.8825 50.682 72.8825 50.55V38.67C72.8825 38.538 72.9245 38.43 73.0085 38.346C73.0925 38.262 73.2005 38.22 73.3325 38.22H75.4565C75.5885 38.22 75.6965 38.262 75.7805 38.346C75.8645 38.43 75.9065 38.538 75.9065 38.67V50.55C75.9065 50.682 75.8645 50.79 75.7805 50.874C75.6965 50.958 75.5885 51 75.4565 51H73.3325ZM82.6409 51.18C81.6329 51.18 80.7809 51.018 80.0849 50.694C79.4009 50.37 78.8729 49.908 78.5009 49.308C78.1409 48.696 77.9369 47.97 77.8889 47.13C77.8769 46.89 77.8709 46.62 77.8709 46.32C77.8709 46.008 77.8769 45.738 77.8889 45.51C77.9369 44.658 78.1529 43.932 78.5369 43.332C78.9209 42.732 79.4549 42.27 80.1389 41.946C80.8349 41.622 81.6689 41.46 82.6409 41.46C83.6249 41.46 84.4589 41.622 85.1429 41.946C85.8389 42.27 86.3789 42.732 86.7629 43.332C87.1469 43.932 87.3629 44.658 87.4109 45.51C87.4229 45.738 87.4289 46.008 87.4289 46.32C87.4289 46.62 87.4229 46.89 87.4109 47.13C87.3629 47.97 87.1529 48.696 86.7809 49.308C86.4209 49.908 85.8929 50.37 85.1969 50.694C84.5129 51.018 83.6609 51.18 82.6409 51.18ZM82.6409 48.984C83.1809 48.984 83.5709 48.822 83.8109 48.498C84.0629 48.174 84.2069 47.688 84.2429 47.04C84.2549 46.86 84.2609 46.62 84.2609 46.32C84.2609 46.02 84.2549 45.78 84.2429 45.6C84.2069 44.964 84.0629 44.484 83.8109 44.16C83.5709 43.824 83.1809 43.656 82.6409 43.656C82.1129 43.656 81.7229 43.824 81.4709 44.16C81.2189 44.484 81.0809 44.964 81.0569 45.6C81.0449 45.78 81.0389 46.02 81.0389 46.32C81.0389 46.62 81.0449 46.86 81.0569 47.04C81.0809 47.688 81.2189 48.174 81.4709 48.498C81.7229 48.822 82.1129 48.984 82.6409 48.984ZM89.8293 51C89.6973 51 89.5893 50.958 89.5053 50.874C89.4213 50.79 89.3793 50.682 89.3793 50.55V42.09C89.3793 41.97 89.4213 41.868 89.5053 41.784C89.5893 41.688 89.6973 41.64 89.8293 41.64H91.8993C92.0313 41.64 92.1393 41.688 92.2233 41.784C92.3073 41.868 92.3493 41.97 92.3493 42.09V42.81C92.6733 42.438 93.0573 42.15 93.5013 41.946C93.9573 41.742 94.4673 41.64 95.0313 41.64H95.8233C95.9433 41.64 96.0453 41.682 96.1293 41.766C96.2253 41.85 96.2733 41.958 96.2733 42.09V43.944C96.2733 44.064 96.2253 44.172 96.1293 44.268C96.0453 44.352 95.9433 44.394 95.8233 44.394H94.0773C93.5853 44.394 93.2013 44.532 92.9253 44.808C92.6613 45.072 92.5293 45.45 92.5293 45.942V50.55C92.5293 50.682 92.4813 50.79 92.3853 50.874C92.3013 50.958 92.1933 51 92.0613 51H89.8293Z" fill="#4CA750"/>
<g clip-path="url(#clip1_45_574)">
<path d="M77.6801 32.3292C77.6872 32.3456 77.694 32.3622 77.7003 32.3789C77.7742 32.5744 77.7646 32.7342 77.7119 32.8623C77.6416 33.0332 77.4774 33.19 77.144 33.2724C76.8107 33.3548 76.3164 33.3432 75.6918 33.1407C71.2696 31.7071 67.0139 30.3418 63.8232 29.2214C63.0518 28.9505 62.3442 28.6943 61.7106 28.4549C62.8152 27.4102 63.3444 26.1044 63.2932 24.7579C63.8983 25.0281 64.5632 25.3356 65.2815 25.6763C68.337 27.1254 72.3216 29.1498 76.4726 31.2429C77.0588 31.5385 77.4181 31.8781 77.5971 32.1712C77.6282 32.222 77.656 32.2748 77.6801 32.3292L77.6801 32.3292ZM62.4631 24.395C62.6719 25.7786 62.176 27.0853 60.8718 28.1297C60.537 27.9965 60.228 27.8693 59.9552 27.7501C59.5264 27.563 59.1785 27.3936 58.9283 27.2509C59.6062 26.8825 60.1157 26.2707 60.395 25.5942C60.6503 24.9759 60.7154 24.2779 60.5092 23.6576C60.7744 23.7339 61.1081 23.8491 61.498 23.9999C61.7885 24.1123 62.1135 24.246 62.4631 24.395ZM59.7202 23.8322C59.8929 24.2622 59.862 24.7835 59.6536 25.2882C59.3759 25.9611 58.7874 26.5511 58.0531 26.7411C56.4259 27.1622 54.9392 26.8932 53.8637 26.1004C52.9131 25.3996 52.2677 24.2819 52.1419 22.7801C52.7223 23.7075 54.2019 24.1648 55.0517 23.8936C54.3423 23.6762 53.6315 23.33 53.0868 22.8578C54.1848 22.8769 55.1139 22.4566 55.9223 22.2106C56.5016 22.0342 57.0165 21.9421 57.5635 22.0754C58.1106 22.2086 58.7282 22.5757 59.4787 23.4367C59.5809 23.554 59.6625 23.6877 59.7202 23.8322Z" fill="#4CA750"/>
</g>
</g>
<defs>
<linearGradient id="paint0_linear_45_574" x1="46.4999" y1="16" x2="55.9999" y2="25.5" gradientUnits="userSpaceOnUse">
<stop stop-color="#C56354"/>
<stop offset="0.266656" stop-color="#9B384B"/>
<stop offset="0.548586" stop-color="#4CA750"/>
<stop offset="0.844337" stop-color="#518257"/>
<stop offset="0.910674" stop-color="#C56354"/>
</linearGradient>
<clipPath id="clip0_45_574">
<rect width="98" height="55" fill="white"/>
</clipPath>
<clipPath id="clip1_45_574">
<rect width="22.815" height="22.815" fill="white" transform="matrix(-0.384925 -0.922948 -0.922948 0.384925 79.8391 34.0571)"/>
</clipPath>
</defs>
</svg>
