<svg width="16" height="17" viewBox="0 0 16 17" fill="none" xmlns="http://www.w3.org/2000/svg">
<path d="M6.66663 11.8333L9.33329 9.16668M6.66663 9.16668H6.67263M9.32729 11.8333H9.33329M7.99996 15.1667C9.41445 15.1667 10.771 14.6048 11.7712 13.6046C12.7714 12.6044 13.3333 11.2478 13.3333 9.83334C13.3333 5.83334 7.99996 1.83334 7.99996 1.83334C7.74129 3.49134 7.48796 4.38134 6.66663 5.83334C5.86663 5.46334 5.66663 5.16668 5.33329 4.33334C3.99996 5.83334 2.66663 7.83334 2.66663 9.83334C2.66663 11.2478 3.22853 12.6044 4.22872 13.6046C5.22892 14.6048 6.58547 15.1667 7.99996 15.1667Z" stroke="#4CA750" stroke-width="0.75" stroke-linecap="round" stroke-linejoin="round"/>
</svg>
