<svg width="24" height="25" viewBox="0 0 24 25" fill="none" xmlns="http://www.w3.org/2000/svg">
<path d="M12.4301 2.63206C12.4043 2.63151 12.3784 2.63326 12.3528 2.63731L11.0595 4.87746C11.0738 4.91449 11.1125 4.98809 11.1857 5.07752C11.3447 5.27131 11.6399 5.51984 12.0047 5.7304C12.3693 5.94096 12.7322 6.0724 12.9795 6.11309C13.0935 6.13184 13.1766 6.12856 13.2159 6.12232L13.5435 5.5549C13.5286 5.54773 13.5138 5.5406 13.4992 5.53221C13.1823 5.34926 13.0737 4.94393 13.2567 4.62706C13.4396 4.31018 13.8448 4.20171 14.1617 4.38471C14.1762 4.39306 14.1898 4.40243 14.2035 4.41176L14.5091 3.88235C14.4949 3.84532 14.4562 3.77163 14.3829 3.6822C14.224 3.48846 13.9287 3.23993 13.564 3.02937C13.1993 2.81871 12.8365 2.68732 12.5892 2.64663C12.5366 2.63786 12.4835 2.63296 12.4301 2.63206ZM9.58483 4.90718C9.53689 4.90652 9.48893 4.90699 9.44101 4.90859C8.68492 4.93296 8.14211 5.20095 7.83775 5.7281C7.82481 5.75051 7.80362 5.81637 7.86906 5.99187C7.93455 6.16737 8.08656 6.41421 8.31709 6.68187C8.7782 7.21718 9.54367 7.84001 10.4759 8.37818C11.4081 8.9164 12.3302 9.26787 13.0244 9.39959C13.3714 9.46554 13.6613 9.47365 13.846 9.44257C14.0306 9.41149 14.077 9.36031 14.0899 9.33795V9.33785C14.3692 8.85429 14.3349 8.24037 13.9808 7.56223C13.8713 7.35251 13.7307 7.14068 13.5621 6.9327C13.5127 6.95238 13.4629 6.96738 13.4147 6.9777C13.2234 7.01895 13.0348 7.01004 12.8372 6.97751C12.4421 6.91245 12.0069 6.74327 11.5667 6.48917C11.1264 6.23501 10.7623 5.9426 10.5084 5.63295C10.3815 5.47812 10.2793 5.31921 10.2194 5.13298C10.202 5.07806 10.1897 5.02162 10.1829 4.96442C9.97558 4.92893 9.77509 4.90967 9.58492 4.90723L9.58483 4.90718ZM14.1425 5.13302L23.2177 17.1291V6.26674L14.1424 5.13298L14.1425 5.13302ZM7.26151 6.72603L1.99792 15.8429L1.99759 15.8435C1.97369 15.8853 1.9554 15.9609 2.01794 16.1394C2.08075 16.3187 2.22944 16.5674 2.45786 16.8365C2.91461 17.3748 3.67923 17.9974 4.61144 18.5357C5.54364 19.0738 6.46534 19.4247 7.1598 19.5512C7.50714 19.6144 7.79683 19.6188 7.98339 19.5835C8.16995 19.5484 8.22601 19.4944 8.25011 19.4527L8.2502 19.4528L13.5139 10.3358C13.3079 10.3301 13.0907 10.3039 12.861 10.2603C12.0305 10.1028 11.0417 9.71641 10.0379 9.1369C9.034 8.55738 8.20506 7.89415 7.65334 7.25374C7.50076 7.07665 7.36947 6.90162 7.26151 6.72603ZM8.83089 9.7624C9.06564 9.76662 9.2838 9.8224 9.4772 9.93406V9.93368C10.1649 10.3307 10.3964 11.3526 10.1644 12.5813C10.0488 11.8024 9.65205 11.1245 9.00517 10.7513C8.3583 10.3781 7.573 10.3733 6.84076 10.6627C7.52219 10.0766 8.23084 9.75143 8.83089 9.7624ZM4.42745 14.7209C4.52214 15.5444 4.91823 16.2703 5.5938 16.6605C6.28051 17.0566 7.12726 17.0352 7.89817 16.6894V16.6897C6.88792 17.646 5.78537 18.0373 5.04559 17.6102C4.312 17.1867 4.11606 16.059 4.42745 14.721V14.7209ZM1.4034 16.8725L1.02372 17.5301C0.999671 17.5717 0.981061 17.6472 1.04387 17.8264C1.10669 18.0056 1.25528 18.2544 1.48365 18.5235C1.94022 19.0616 2.70447 19.684 3.63615 20.2221L3.63728 20.2227H3.63737C4.56958 20.7609 5.49119 21.1117 6.18573 21.2381C6.53298 21.3014 6.82276 21.3057 7.00933 21.2705C7.19589 21.2353 7.252 21.1814 7.27605 21.1398L7.65573 20.4821C7.44911 20.4788 7.23175 20.4547 7.00276 20.413C6.16651 20.2608 5.17712 19.8738 4.1733 19.2942C3.16956 18.7147 2.33973 18.0514 1.7898 17.4033C1.63919 17.2259 1.50962 17.0498 1.4034 16.8725Z" fill="white"/>
</svg>
