<svg xmlns="http://www.w3.org/2000/svg" width="1em" height="1em" viewBox="0 0 24 24"><path fill="#1C1C29" d="M21.45 11.227h-1.39a8.18 8.18 0 0 0-7.36-7.36v-1.39a.75.75 0 0 0-1.5 0v1.39a8.17 8.17 0 0 0-7.31 7.36H2.5a.75.75 0 1 0 0 1.5h1.39a8.18 8.18 0 0 0 7.36 7.36v1.39a.75.75 0 0 0 1.5 0v-1.39a8.19 8.19 0 0 0 7.36-7.36h1.39a.75.75 0 1 0 0-1.5zm-9.5 7.39a6.64 6.64 0 1 1 6.64-6.64a6.65 6.65 0 0 1-6.64 6.65z"/><path fill="#1C1C29" d="M16.48 11.987a4.54 4.54 0 1 1-4.53-4.54a4.53 4.53 0 0 1 4.53 4.54"/></svg>