<svg width="32" height="32" viewBox="0 0 32 32" fill="none" xmlns="http://www.w3.org/2000/svg">
<path d="M16.0001 2.66667C15.116 2.66667 14.2682 3.01786 13.643 3.64298C13.0179 4.2681 12.6667 5.11595 12.6667 6.00001V10H9.48272C7.91739 10 6.71339 11.324 6.76272 12.8413C6.82005 14.564 6.82272 17.316 6.47339 20.152C6.12005 23.016 5.42405 25.8373 4.16005 27.7907C4.06249 27.9417 4.00744 28.1162 4.0007 28.2959C3.99396 28.4755 4.03578 28.6537 4.12176 28.8116C4.20773 28.9694 4.33468 29.1012 4.48925 29.1931C4.64381 29.2849 4.82027 29.3333 5.00005 29.3333H22.0667V27.3333H14.8401L15.3094 25.2173C15.363 24.96 15.3131 24.692 15.1706 24.4712C15.028 24.2503 14.8043 24.0945 14.5477 24.0374C14.2912 23.9802 14.0225 24.0264 13.7997 24.1659C13.5769 24.3054 13.418 24.5269 13.3574 24.7827L12.7907 27.3333H11.0401L11.1454 27.0533C11.4521 26.2227 11.8081 25.0667 11.9881 23.808C12.0255 23.5454 11.9572 23.2787 11.798 23.0666C11.6389 22.8544 11.4019 22.7142 11.1394 22.6767C10.8768 22.6392 10.6101 22.7075 10.398 22.8667C10.1858 23.0259 10.0455 23.2628 10.0081 23.5253C9.85949 24.494 9.61152 25.4448 9.26805 26.3627C9.13072 26.736 9.00405 27.0387 8.91205 27.2467L8.87339 27.3333H6.68005C7.64272 25.2347 8.16939 22.74 8.45872 20.3973C8.58195 19.3794 8.66956 18.3574 8.72139 17.3333H23.3334V18.892C23.6459 18.7438 23.9875 18.6669 24.3334 18.6669C24.6793 18.6669 25.0209 18.7438 25.3334 18.892V13C25.3334 12.606 25.2558 12.2159 25.105 11.852C24.9543 11.488 24.7333 11.1573 24.4547 10.8787C24.1761 10.6001 23.8454 10.3791 23.4814 10.2284C23.1175 10.0776 22.7274 10 22.3334 10H19.3334V6.00001C19.3334 5.11595 18.9822 4.2681 18.3571 3.64298C17.732 3.01786 16.8841 2.66667 16.0001 2.66667ZM23.3334 15.3333H8.78672C8.80005 14.352 8.78539 13.48 8.76139 12.776C8.75692 12.6776 8.77208 12.5793 8.80599 12.4868C8.83989 12.3943 8.89186 12.3094 8.95887 12.2372C9.02588 12.165 9.10658 12.1068 9.19629 12.0661C9.286 12.0254 9.38291 12.0029 9.48139 12H13.6667C13.9319 12 14.1863 11.8946 14.3738 11.7071C14.5614 11.5196 14.6667 11.2652 14.6667 11V6.00001C14.6667 5.64638 14.8072 5.30724 15.0572 5.0572C15.3073 4.80715 15.6464 4.66667 16.0001 4.66667C16.3537 4.66667 16.6928 4.80715 16.9429 5.0572C17.1929 5.30724 17.3334 5.64638 17.3334 6.00001V11C17.3334 11.552 17.7814 12 18.3334 12H22.3334C22.5986 12 22.853 12.1054 23.0405 12.2929C23.228 12.4804 23.3334 12.7348 23.3334 13V15.3333ZM20.2934 25.04C20.4809 25.2273 20.7351 25.3325 21.0001 25.3325C21.2651 25.3325 21.5192 25.2273 21.7067 25.04L23.4001 23.3467V29.6667C23.4001 29.9319 23.5054 30.1862 23.6929 30.3738C23.8805 30.5613 24.1348 30.6667 24.4001 30.6667C24.6653 30.6667 24.9196 30.5613 25.1072 30.3738C25.2947 30.1862 25.4001 29.9319 25.4001 29.6667V23.48L26.9601 25.04C27.0516 25.1383 27.162 25.2171 27.2847 25.2717C27.4073 25.3264 27.5398 25.3558 27.674 25.3581C27.8083 25.3605 27.9417 25.3358 28.0662 25.2855C28.1907 25.2352 28.3038 25.1603 28.3988 25.0654C28.4937 24.9704 28.5686 24.8573 28.6189 24.7328C28.6692 24.6083 28.6939 24.4749 28.6915 24.3406C28.6891 24.2064 28.6597 24.074 28.6051 23.9513C28.5504 23.8286 28.4716 23.7182 28.3734 23.6267L25.0401 20.2933C24.8526 20.1061 24.5984 20.0009 24.3334 20.0009C24.0684 20.0009 23.8142 20.1061 23.6267 20.2933L20.2934 23.6267C20.1061 23.8142 20.0009 24.0683 20.0009 24.3333C20.0009 24.5983 20.1061 24.8525 20.2934 25.04Z" fill="#4CA750"/>
</svg>
