<svg width="39" height="38" viewBox="0 0 39 38" fill="none" xmlns="http://www.w3.org/2000/svg">
<path d="M36.6666 6.49169V3.64169L33.8166 3.32502C33.6583 3.32502 32.7083 3.16669 31.125 3.16669C24.6333 3.16669 19.8833 5.06669 17.1916 8.39169C15.1333 7.12502 12.2833 6.33335 8.9583 6.33335C7.37497 6.33335 6.26663 6.49169 6.26663 6.49169L3.2583 6.96669L3.41663 9.65835C3.57497 14.4084 5.94997 23.4334 14.1833 23.4334H14.5V28.8167C8.4833 29.6084 3.41663 31.6667 3.41663 31.6667V34.8334H35.0833V31.6667C35.0833 31.6667 30.0166 29.6084 24 28.8167V23.75C33.975 23.5917 36.6666 12.35 36.6666 6.49169ZM19.25 28.5H17.6666V19.6334C17.6666 19.6334 17.35 14.25 12.9166 14.25C12.9166 14.25 15.2916 15.5167 15.925 20.1084C15.2916 20.2667 14.6583 20.2667 14.1833 20.2667C6.89997 20.2667 6.5833 9.65835 6.5833 9.65835C6.5833 9.65835 7.5333 9.50002 8.9583 9.50002C11.9666 9.50002 16.875 10.1334 18.3 14.4084C19.0916 7.28335 27.1666 6.33335 31.125 6.33335C32.55 6.33335 33.5 6.49169 33.5 6.49169C33.5 6.49169 33.5 20.7417 23.525 20.7417H22.4166C22.4166 17.575 25.5833 12.825 25.5833 12.825C20.8333 14.4084 20.8333 20.5834 20.8333 20.5834V28.5H19.25Z" fill="#4CA750"/>
</svg>
