<svg width="38" height="38" viewBox="0 0 38 38" fill="none" xmlns="http://www.w3.org/2000/svg">
<path d="M15.8333 9.81669C15.8333 6.80835 13.9333 4.11669 11.0833 3.16669V9.02502H6.33325V3.16669C3.48325 4.11669 1.58325 6.80835 1.58325 9.81669C1.58325 12.825 3.48325 15.5167 6.33325 16.4667V33.8834C6.33325 34.5167 6.64992 34.8334 7.12492 34.8334H10.2916C10.7666 34.8334 11.0833 34.5167 11.0833 34.0417V16.625C13.9333 15.675 15.8333 12.9834 15.8333 9.81669ZM25.3333 12.6667C19.1583 12.825 14.2499 17.7334 14.2499 23.75C14.2499 29.925 19.1583 34.8334 25.3333 34.8334C31.5083 34.8334 36.4166 29.925 36.4166 23.75C36.4166 17.575 31.5083 12.6667 25.3333 12.6667ZM25.3333 31.6667C20.8999 31.6667 17.4166 28.1834 17.4166 23.75C17.4166 19.3167 20.8999 15.8334 25.3333 15.8334C29.7666 15.8334 33.2499 19.3167 33.2499 23.75C33.2499 28.1834 29.7666 31.6667 25.3333 31.6667ZM23.7499 17.4167V25.3334L29.4499 28.8167L30.7166 26.9167L26.1249 24.225V17.4167H23.7499Z" fill="#4CA750"/>
</svg>
