<svg width="39" height="38" viewBox="0 0 39 38" fill="none" xmlns="http://www.w3.org/2000/svg">
<path d="M19.9312 19C21.8208 19 23.6331 18.2493 24.9693 16.9131C26.3055 15.5769 27.0562 13.7647 27.0562 11.875C27.0562 9.98533 26.3055 8.17306 24.9693 6.83686C23.6331 5.50067 21.8208 4.75 19.9312 4.75C18.0415 4.75 16.2292 5.50067 14.893 6.83686C13.5568 8.17306 12.8062 9.98533 12.8062 11.875C12.8062 13.7647 13.5568 15.5769 14.893 16.9131C16.2292 18.2493 18.0415 19 19.9312 19ZM24.6812 11.875C24.6812 13.1348 24.1807 14.343 23.2899 15.2338C22.3991 16.1246 21.1909 16.625 19.9312 16.625C18.6714 16.625 17.4632 16.1246 16.5724 15.2338C15.6816 14.343 15.1812 13.1348 15.1812 11.875C15.1812 10.6152 15.6816 9.40704 16.5724 8.51624C17.4632 7.62544 18.6714 7.125 19.9312 7.125C21.1909 7.125 22.3991 7.62544 23.2899 8.51624C24.1807 9.40704 24.6812 10.6152 24.6812 11.875ZM34.1812 30.875C34.1812 33.25 31.8062 33.25 31.8062 33.25H8.05615C8.05615 33.25 5.68115 33.25 5.68115 30.875C5.68115 28.5 8.05615 21.375 19.9312 21.375C31.8062 21.375 34.1812 28.5 34.1812 30.875ZM31.8062 30.8655C31.8038 30.2812 31.4404 28.5238 29.8302 26.9135C28.2817 25.365 25.3675 23.75 19.9312 23.75C14.4948 23.75 11.5807 25.365 10.0322 26.9135C8.4219 28.5238 8.0609 30.2812 8.05615 30.8655H31.8062Z" fill="#4CA750"/>
</svg>
