<svg width="32" height="32" viewBox="0 0 32 32" fill="none" xmlns="http://www.w3.org/2000/svg">
<path d="M9.33343 4.45466C11.3585 3.27971 13.6589 2.66274 16.0001 2.66666C23.3641 2.66666 29.3334 8.65199 29.3334 16.0347C29.3334 26.904 18.4521 19.2253 16.3494 22.568C15.8228 23.4053 16.3921 24.448 17.0894 25.148C17.5079 25.5679 17.7429 26.1365 17.7429 26.7293C17.7429 27.3221 17.5079 27.8908 17.0894 28.3107C16.3921 29.0107 15.4428 29.428 14.4628 29.3147C7.82277 28.5507 2.66677 22.896 2.66677 16.0347C2.66279 13.6818 3.28151 11.3697 4.4601 9.33333" stroke="#4CA750" stroke-width="2.5" stroke-linecap="round"/>
<path d="M23.3335 17.3333C24.4381 17.3333 25.3335 16.4379 25.3335 15.3333C25.3335 14.2288 24.4381 13.3333 23.3335 13.3333C22.2289 13.3333 21.3335 14.2288 21.3335 15.3333C21.3335 16.4379 22.2289 17.3333 23.3335 17.3333Z" stroke="#4CA750" stroke-width="2.5"/>
<path d="M8.66675 17.3333C9.77132 17.3333 10.6667 16.4379 10.6667 15.3333C10.6667 14.2288 9.77132 13.3333 8.66675 13.3333C7.56218 13.3333 6.66675 14.2288 6.66675 15.3333C6.66675 16.4379 7.56218 17.3333 8.66675 17.3333Z" stroke="#4CA750" stroke-width="2.5"/>
<path d="M14.78 9.33333C14.78 9.86376 14.5693 10.3725 14.1942 10.7475C13.8192 11.1226 13.3105 11.3333 12.78 11.3333C12.2496 11.3333 11.7409 11.1226 11.3658 10.7475C10.9907 10.3725 10.78 9.86376 10.78 9.33333C10.78 8.8029 10.9907 8.29419 11.3658 7.91911C11.7409 7.54404 12.2496 7.33333 12.78 7.33333C13.3105 7.33333 13.8192 7.54404 14.1942 7.91911C14.5693 8.29419 14.78 8.8029 14.78 9.33333ZM21.3334 9.33333C21.3334 9.86376 21.1226 10.3725 20.7476 10.7475C20.3725 11.1226 19.8638 11.3333 19.3334 11.3333C18.8029 11.3333 18.2942 11.1226 17.9191 10.7475C17.5441 10.3725 17.3334 9.86376 17.3334 9.33333C17.3334 8.8029 17.5441 8.29419 17.9191 7.91911C18.2942 7.54404 18.8029 7.33333 19.3334 7.33333C19.8638 7.33333 20.3725 7.54404 20.7476 7.91911C21.1226 8.29419 21.3334 8.8029 21.3334 9.33333Z" stroke="#4CA750" stroke-width="2.5"/>
</svg>
