<svg width="32" height="32" viewBox="0 0 32 32" fill="none" xmlns="http://www.w3.org/2000/svg">
<path d="M13.9334 20.6667C14.4667 21.2 15.1556 21.4613 16.0001 21.4507C16.8445 21.44 17.4667 21.1342 17.8667 20.5333L25.3334 9.33333L14.1334 16.8C13.5334 17.2 13.217 17.8111 13.1841 18.6333C13.1512 19.4556 13.401 20.1333 13.9334 20.6667ZM16.0001 5.33333C17.3112 5.33333 18.5725 5.51644 19.7841 5.88266C20.9956 6.24888 22.1343 6.79911 23.2001 7.53333L20.6667 9.13333C19.9334 8.75555 19.1725 8.47244 18.3841 8.28399C17.5956 8.09555 16.801 8.00088 16.0001 7.99999C13.0445 7.99999 10.5276 9.03911 8.44941 11.1173C6.37119 13.1956 5.33253 15.712 5.33341 18.6667C5.33341 19.6 5.46141 20.5222 5.71741 21.4333C5.97341 22.3444 6.3343 23.2 6.80008 24H25.2001C25.7112 23.1556 26.0836 22.2778 26.3174 21.3667C26.5512 20.4556 26.6676 19.5111 26.6667 18.5333C26.6667 17.7333 26.5721 16.9556 26.3827 16.2C26.1934 15.4444 25.9103 14.7111 25.5334 14L27.1334 11.4667C27.8001 12.5111 28.3281 13.6222 28.7174 14.8C29.1067 15.9778 29.3121 17.2 29.3334 18.4667C29.3547 19.7333 29.2103 20.9444 28.9001 22.1C28.5899 23.2556 28.1343 24.3555 27.5334 25.4C27.289 25.8 26.9556 26.1111 26.5334 26.3333C26.1112 26.5556 25.6667 26.6667 25.2001 26.6667H6.80008C6.33341 26.6667 5.88897 26.5556 5.46675 26.3333C5.04453 26.1111 4.71119 25.8 4.46675 25.4C3.88897 24.4 3.44453 23.3391 3.13341 22.2173C2.8223 21.0956 2.66675 19.912 2.66675 18.6667C2.66675 16.8222 3.01697 15.0947 3.71741 13.484C4.41786 11.8733 5.37341 10.4622 6.58408 9.25066C7.79475 8.03911 9.21119 7.08355 10.8334 6.384C12.4556 5.68444 14.1779 5.33422 16.0001 5.33333Z" fill="#4CA750"/>
</svg>
