<svg width="38" height="38" viewBox="0 0 38 38" fill="none" xmlns="http://www.w3.org/2000/svg">
<path d="M23.75 20.5833H26.125V25.0483L29.9883 27.2808L28.8008 29.3391L23.75 26.4258V20.5833ZM30.0833 12.6666H7.91667V30.0833H15.3108C14.63 28.6425 14.25 27.0275 14.25 25.3333C14.25 22.3938 15.4177 19.5747 17.4962 17.4962C19.5748 15.4177 22.3939 14.25 25.3333 14.25C27.0275 14.25 28.6425 14.63 30.0833 15.3108V12.6666ZM7.91667 33.25C7.07681 33.25 6.27136 32.9163 5.6775 32.3225C5.08363 31.7286 4.75 30.9232 4.75 30.0833V7.91665C4.75 6.15915 6.15917 4.74998 7.91667 4.74998H9.5V1.58331H12.6667V4.74998H25.3333V1.58331H28.5V4.74998H30.0833C30.9232 4.74998 31.7286 5.08361 32.3225 5.67747C32.9164 6.27134 33.25 7.07679 33.25 7.91665V17.575C35.2133 19.57 36.4167 22.3091 36.4167 25.3333C36.4167 28.2728 35.249 31.0919 33.1704 33.1704C31.0919 35.2489 28.2728 36.4166 25.3333 36.4166C22.3092 36.4166 19.57 35.2133 17.575 33.25H7.91667ZM25.3333 17.6541C23.2967 17.6541 21.3435 18.4632 19.9033 19.9033C18.4632 21.3434 17.6542 23.2967 17.6542 25.3333C17.6542 29.5766 21.09 33.0125 25.3333 33.0125C26.3418 33.0125 27.3403 32.8139 28.272 32.4279C29.2037 32.042 30.0502 31.4764 30.7633 30.7633C31.4764 30.0502 32.042 29.2037 32.428 28.272C32.8139 27.3403 33.0125 26.3418 33.0125 25.3333C33.0125 21.09 29.5767 17.6541 25.3333 17.6541Z" fill="#4CA750"/>
</svg>
